<?xml version="1.0" encoding="utf-8"?>
<!-- Generator: Adobe Illustrator 15.0.0, SVG Export Plug-In . SVG Version: 6.00 Build 0)  -->
<!DOCTYPE svg PUBLIC "-//W3C//DTD SVG 1.1//EN" "http://www.w3.org/Graphics/SVG/1.1/DTD/svg11.dtd">
<svg version="1.1" id="Layer_1" xmlns="http://www.w3.org/2000/svg" xmlns:xlink="http://www.w3.org/1999/xlink" x="0px" y="0px"
	 width="325.285px" height="72.28px" viewBox="0 0 325.285 72.28" enable-background="new 0 0 325.285 72.28" xml:space="preserve">
<polygon fill="#666766" points="21.064,0.412 17.958,17.098 14.951,0.412 10.506,0.412 7.5,16.884 4.395,0.412 0,0.412 
	5.648,25.078 9.396,25.078 12.722,7.601 16.072,25.078 19.834,25.078 25.476,0.412 "/>
<polygon fill="#666766" points="40.599,25.078 25.464,25.078 25.464,0.412 40.119,0.412 40.119,4.311 29.628,4.311 29.628,10.259 
	39.311,10.259 39.311,14.141 29.628,14.141 29.628,21.18 40.599,21.18 "/>
<g>
	<defs>
		<rect id="SVGID_1_" y="0" width="325.285" height="72.28"/>
	</defs>
	<clipPath id="SVGID_2_">
		<use xlink:href="#SVGID_1_"  overflow="visible"/>
	</clipPath>
	<path clip-path="url(#SVGID_2_)" fill="#666766" d="M63.295,11.978c0,3.028-0.517,5.765-1.553,8.211
		c-1.377,3.259-3.397,4.889-6.062,4.889h-9.137V0.412h9.401c2.445,0,4.339,1.306,5.683,3.916
		C62.74,6.486,63.295,9.036,63.295,11.978 M58.967,12.291c0-2.104-0.281-3.821-0.842-5.154c-0.793-1.884-2.071-2.825-3.834-2.825
		h-3.584V21.18h3.172C57.271,21.18,58.967,18.217,58.967,12.291"/>
	<rect x="63.666" y="0.412" clip-path="url(#SVGID_2_)" fill="#666766" width="4.162" height="24.666"/>
	<path clip-path="url(#SVGID_2_)" fill="#666766" d="M86.818,25.078h-2.512l-0.496-2.974c-1.619,2.5-3.662,3.75-6.129,3.75
		c-3.117,0-5.54-1.448-7.269-4.344c-1.443-2.423-2.164-5.315-2.164-8.674c0-3.348,0.765-6.229,2.297-8.641
		C72.318,1.398,74.763,0,77.88,0c2.929,0,5.143,0.902,6.641,2.709c0.958,1.156,1.619,2.362,1.983,3.618
		c0.087,0.319,0.193,0.964,0.314,1.934h-3.783c-0.331-1.279-0.904-2.309-1.719-3.09c-0.893-0.87-1.966-1.306-3.222-1.306
		c-2.059,0-3.563,1.047-4.51,3.14c-0.694,1.542-1.041,3.529-1.041,5.964c0,2.191,0.392,4.14,1.173,5.847
		c1.002,2.193,2.452,3.288,4.345,3.288c1.565,0,2.936-0.881,4.114-2.643c0.705-1.046,1.09-2.187,1.157-3.42h-4.593v-3.849h8.079
		V25.078z"/>
	<polygon clip-path="url(#SVGID_2_)" fill="#666766" points="107.895,4.312 101.998,4.312 101.998,25.079 97.833,25.079 
		97.833,4.312 91.721,4.312 91.721,0.413 107.895,0.413 	"/>
	<polygon clip-path="url(#SVGID_2_)" fill="#666766" points="123.961,25.078 119.797,25.078 119.797,14.157 111.785,14.157 
		111.785,25.078 107.621,25.078 107.621,0.412 111.785,0.412 111.785,10.259 119.797,10.259 119.797,0.412 123.961,0.412 	"/>
	<polygon clip-path="url(#SVGID_2_)" fill="#666766" points="140.538,25.078 125.404,25.078 125.404,0.412 140.058,0.412 
		140.058,4.311 129.568,4.311 129.568,10.259 139.249,10.259 139.249,14.141 129.568,14.141 129.568,21.18 140.538,21.18 	"/>
	<path clip-path="url(#SVGID_2_)" fill="#666766" d="M31.139,58.296c0,4.187-1.135,7.54-3.4,10.064
		c-2.359,2.613-5.614,3.92-9.762,3.92c-4.023,0-7.285-1.334-9.79-4.003c-2.45-2.614-3.675-5.941-3.675-9.981V30.052h6.91v28.93
		c0,4.369,2.112,6.553,6.335,6.553c4.315,0,6.472-2.184,6.472-6.553v-28.93h6.91V58.296z"/>
	<polygon clip-path="url(#SVGID_2_)" fill="#666766" points="60.49,70.991 53.679,70.991 40.116,42.494 40.116,70.991 
		33.206,70.991 33.206,30.052 39.978,30.052 53.58,58.186 53.58,30.052 60.49,30.052 	"/>
	<path clip-path="url(#SVGID_2_)" fill="#666766" d="M90.418,49.248c0,5.025-0.86,9.568-2.579,13.627
		c-2.285,5.411-5.64,8.116-10.063,8.116H62.612V30.052h15.602c4.059,0,7.204,2.166,9.434,6.499
		C89.495,40.134,90.418,44.365,90.418,49.248 M83.232,49.768c0-3.491-0.466-6.344-1.397-8.556c-1.318-3.126-3.437-4.688-6.363-4.688
		h-5.95v27.997h5.265C80.418,64.521,83.232,59.603,83.232,49.768"/>
	<polygon clip-path="url(#SVGID_2_)" fill="#666766" points="116.862,70.991 91.744,70.991 91.744,30.052 116.067,30.052 
		116.067,36.523 98.654,36.523 98.654,46.396 114.723,46.396 114.723,52.839 98.654,52.839 98.654,64.521 116.862,64.521 	"/>
	<path clip-path="url(#SVGID_2_)" fill="#666766" d="M147.337,70.991h-8.088l-7.404-16.179h-6.581v16.179h-6.911v-40.94h16.975
		c3.216,0,5.759,1.189,7.623,3.566c1.718,2.176,2.578,4.917,2.578,8.226c0,5.594-2.377,9.47-7.13,11.627L147.337,70.991z
		 M138.399,42.857c0-4.223-1.398-6.334-4.195-6.334h-8.94v11.846h9.049c1.151,0,2.139-0.648,2.962-1.948
		C138.024,45.252,138.399,44.064,138.399,42.857"/>
	<path clip-path="url(#SVGID_2_)" fill="#666766" d="M176.389,70.991h-4.168l-0.822-4.935c-2.688,4.149-6.079,6.224-10.174,6.224
		c-5.174,0-9.195-2.403-12.066-7.212c-2.395-4.021-3.591-8.819-3.591-14.396c0-5.558,1.27-10.338,3.811-14.342
		c2.944-4.644,7.001-6.965,12.175-6.965c4.862,0,8.536,1.499,11.023,4.497c1.591,1.919,2.687,3.921,3.291,6.005
		c0.146,0.53,0.319,1.6,0.521,3.209h-6.279c-0.549-2.12-1.5-3.83-2.852-5.128c-1.481-1.444-3.264-2.167-5.348-2.167
		c-3.419,0-5.914,1.737-7.486,5.211c-1.15,2.559-1.726,5.859-1.726,9.898c0,3.639,0.648,6.874,1.946,9.707
		c1.663,3.639,4.067,5.458,7.212,5.458c2.596,0,4.871-1.464,6.828-4.389c1.17-1.736,1.81-3.629,1.919-5.676h-7.623v-6.39h13.409
		V70.991z"/>
	<path clip-path="url(#SVGID_2_)" fill="#666766" d="M207.989,70.991H199.9l-7.404-16.179h-6.582v16.179h-6.909v-40.94h16.974
		c3.217,0,5.758,1.189,7.623,3.566c1.719,2.176,2.578,4.917,2.578,8.226c0,5.594-2.377,9.47-7.13,11.627L207.989,70.991z
		 M199.05,42.857c0-4.223-1.398-6.334-4.195-6.334h-8.94v11.846h9.05c1.151,0,2.139-0.648,2.961-1.948
		C198.675,45.252,199.05,44.064,199.05,42.857"/>
	<path clip-path="url(#SVGID_2_)" fill="#666766" d="M238.41,50.837c0,5.777-1.216,10.612-3.647,14.506
		c-2.888,4.625-7.046,6.938-12.478,6.938c-5.428,0-9.588-2.303-12.475-6.91c-2.451-3.894-3.675-8.738-3.675-14.533
		s1.224-10.64,3.675-14.533c2.905-4.625,7.064-6.938,12.475-6.938c5.432,0,9.59,2.313,12.478,6.938
		C237.194,40.197,238.41,45.042,238.41,50.837 M231.227,50.837c0-3.857-0.568-7.047-1.701-9.569
		c-1.535-3.401-3.949-5.101-7.24-5.101c-3.309,0-5.729,1.69-7.266,5.072c-1.134,2.505-1.7,5.705-1.7,9.598
		c0,3.894,0.566,7.093,1.7,9.598c1.518,3.363,3.939,5.045,7.266,5.045c3.291,0,5.705-1.699,7.24-5.1
		C230.658,57.856,231.227,54.676,231.227,50.837"/>
	<path clip-path="url(#SVGID_2_)" fill="#666766" d="M266.006,58.296c0,4.187-1.133,7.54-3.4,10.064
		c-2.357,2.613-5.611,3.92-9.762,3.92c-4.021,0-7.285-1.334-9.789-4.003c-2.449-2.614-3.674-5.941-3.674-9.981V30.052h6.91v28.93
		c0,4.369,2.111,6.553,6.334,6.553c4.314,0,6.471-2.184,6.471-6.553v-28.93h6.91V58.296z"/>
	<polygon clip-path="url(#SVGID_2_)" fill="#666766" points="295.358,70.991 288.548,70.991 274.984,42.494 274.984,70.991 
		268.074,70.991 268.074,30.052 274.848,30.052 288.448,58.186 288.448,30.052 295.358,30.052 	"/>
	<path clip-path="url(#SVGID_2_)" fill="#666766" d="M325.285,49.248c0,5.025-0.859,9.568-2.576,13.627
		c-2.286,5.411-5.641,8.116-10.064,8.116H297.48V30.052h15.604c4.057,0,7.201,2.166,9.433,6.499
		C324.363,40.134,325.285,44.365,325.285,49.248 M318.102,49.768c0-3.491-0.467-6.344-1.398-8.556
		c-1.316-3.126-3.438-4.688-6.362-4.688h-5.95v27.997h5.265C315.285,64.521,318.102,59.603,318.102,49.768"/>
	<path clip-path="url(#SVGID_2_)" fill="#666766" d="M306.968,24.124c0.352,0.225,0.855,0.395,1.396,0.395
		c0.802,0,1.27-0.422,1.27-1.035c0-0.557-0.324-0.89-1.144-1.197c-0.99-0.36-1.603-0.882-1.603-1.728
		c0-0.946,0.783-1.648,1.963-1.648c0.612,0,1.071,0.145,1.332,0.297l-0.216,0.64c-0.189-0.118-0.594-0.288-1.144-0.288
		c-0.828,0-1.143,0.495-1.143,0.909c0,0.567,0.368,0.846,1.206,1.17c1.026,0.396,1.539,0.891,1.539,1.783
		c0,0.935-0.684,1.755-2.115,1.755c-0.585,0-1.225-0.18-1.549-0.396L306.968,24.124z"/>
	<path clip-path="url(#SVGID_2_)" fill="#666766" d="M316.617,22.413c-0.045-0.846-0.1-1.872-0.1-2.619H316.5
		c-0.216,0.702-0.459,1.467-0.766,2.305l-1.071,2.943h-0.594l-0.99-2.89c-0.288-0.864-0.522-1.638-0.694-2.358h-0.017
		c-0.019,0.756-0.063,1.764-0.117,2.682l-0.162,2.602h-0.747l0.422-6.067h1l1.035,2.934c0.253,0.747,0.45,1.413,0.612,2.044h0.018
		c0.163-0.612,0.379-1.279,0.648-2.044l1.081-2.934h0.999l0.378,6.067h-0.775L316.617,22.413z"/>
</g>
</svg>
